<?xml version="1.0" encoding="UTF-8"?>
<svg xmlns="http://www.w3.org/2000/svg" xmlns:xlink="http://www.w3.org/1999/xlink" width="24px" height="24px" viewBox="0 0 24 24" version="1.1">
<g id="surface1">
<path style=" stroke:none;fill-rule:nonzero;fill:rgb(100%,40.000001%,0%);fill-opacity:1;" d="M 22 12 C 22 17.523438 17.523438 22 12 22 C 6.476562 22 2 17.523438 2 12 C 2 6.476562 6.476562 2 12 2 C 17.523438 2 22 6.476562 22 12 Z M 22 12 "/>
<path style=" stroke:none;fill-rule:evenodd;fill:rgb(100%,100%,100%);fill-opacity:1;" d="M 12 7.25 C 12.414062 7.25 12.75 7.585938 12.75 8 L 12.75 11.6875 L 15.03125 13.96875 C 15.324219 14.261719 15.324219 14.738281 15.03125 15.03125 C 14.738281 15.324219 14.261719 15.324219 13.96875 15.03125 L 11.46875 12.53125 C 11.328125 12.390625 11.25 12.199219 11.25 12 L 11.25 8 C 11.25 7.585938 11.585938 7.25 12 7.25 Z M 12 7.25 "/>
</g>
</svg>
