<?xml version="1.0" encoding="UTF-8"?>
<svg xmlns="http://www.w3.org/2000/svg" xmlns:xlink="http://www.w3.org/1999/xlink" width="24px" height="24px" viewBox="0 0 24 24" version="1.1">
<g id="surface1">
<path style=" stroke:none;fill-rule:nonzero;fill:rgb(100%,53.333336%,0%);fill-opacity:1;" d="M 12 0 C 7.03125 0 3 4.03125 3 9 C 3 10.957031 3.640625 12.753906 4.707031 14.222656 C 4.726562 14.257812 4.730469 14.296875 4.753906 14.332031 L 10.753906 23.332031 C 11.03125 23.75 11.5 24 12 24 C 12.5 24 12.96875 23.75 13.246094 23.332031 L 19.246094 14.332031 C 19.269531 14.296875 19.273438 14.257812 19.292969 14.222656 C 20.359375 12.753906 21 10.957031 21 9 C 21 4.03125 16.96875 0 12 0 Z M 12 12 C 10.34375 12 9 10.65625 9 9 C 9 7.34375 10.34375 6 12 6 C 13.65625 6 15 7.34375 15 9 C 15 10.65625 13.65625 12 12 12 Z M 12 12 "/>
</g>
</svg>
