<?xml version="1.0" encoding="UTF-8"?>
<svg xmlns="http://www.w3.org/2000/svg" xmlns:xlink="http://www.w3.org/1999/xlink" width="24px" height="24px" viewBox="0 0 24 24" version="1.1">
<g id="surface1">
<path style="fill-rule:nonzero;fill:rgb(16.078432%,17.647059%,19.607843%);fill-opacity:1;stroke-width:1;stroke-linecap:butt;stroke-linejoin:miter;stroke:rgb(100%,40.000001%,0%);stroke-opacity:1;stroke-miterlimit:4;" d="M 17.527344 7.769531 C 17.460938 7.761719 17.390625 7.761719 17.320312 7.769531 C 15.769531 7.71875 14.539062 6.449219 14.539062 4.890625 C 14.539062 3.300781 15.828125 2 17.429688 2 C 19.019531 2 20.320312 3.289062 20.320312 4.890625 C 20.308594 6.449219 19.078125 7.71875 17.527344 7.769531 Z M 17.527344 7.769531 "/>
<path style="fill-rule:nonzero;fill:rgb(16.078432%,17.647059%,19.607843%);fill-opacity:1;stroke-width:1;stroke-linecap:butt;stroke-linejoin:miter;stroke:rgb(100%,40.000001%,0%);stroke-opacity:1;stroke-miterlimit:4;" d="M 20.792969 14.699219 C 19.671875 15.449219 18.101562 15.730469 16.652344 15.539062 C 17.03125 14.71875 17.230469 13.808594 17.242188 12.851562 C 17.242188 11.851562 17.023438 10.902344 16.601562 10.070312 C 18.082031 9.871094 19.652344 10.152344 20.78125 10.902344 C 22.363281 11.941406 22.363281 13.652344 20.792969 14.699219 Z M 20.792969 14.699219 "/>
<path style="fill-rule:nonzero;fill:rgb(16.078432%,17.647059%,19.607843%);fill-opacity:1;stroke-width:1;stroke-linecap:butt;stroke-linejoin:miter;stroke:rgb(100%,40.000001%,0%);stroke-opacity:1;stroke-miterlimit:4;" d="M 6.441406 7.769531 C 6.511719 7.761719 6.582031 7.761719 6.648438 7.769531 C 8.199219 7.71875 9.429688 6.449219 9.429688 4.890625 C 9.429688 3.289062 8.140625 2 6.539062 2 C 4.949219 2 3.660156 3.289062 3.660156 4.890625 C 3.660156 6.449219 4.890625 7.71875 6.441406 7.769531 Z M 6.441406 7.769531 "/>
<path style="fill-rule:nonzero;fill:rgb(16.078432%,17.647059%,19.607843%);fill-opacity:1;stroke-width:1;stroke-linecap:butt;stroke-linejoin:miter;stroke:rgb(100%,40.000001%,0%);stroke-opacity:1;stroke-miterlimit:4;" d="M 6.550781 12.851562 C 6.550781 13.820312 6.761719 14.742188 7.140625 15.570312 C 5.730469 15.71875 4.261719 15.421875 3.179688 14.710938 C 1.601562 13.660156 1.601562 11.949219 3.179688 10.902344 C 4.25 10.179688 5.761719 9.890625 7.179688 10.050781 C 6.769531 10.890625 6.550781 11.839844 6.550781 12.851562 Z M 6.550781 12.851562 "/>
<path style="fill-rule:nonzero;fill:rgb(16.078432%,17.647059%,19.607843%);fill-opacity:1;stroke-width:1;stroke-linecap:butt;stroke-linejoin:miter;stroke:rgb(100%,40.000001%,0%);stroke-opacity:1;stroke-miterlimit:4;" d="M 12.121094 15.871094 C 12.039062 15.859375 11.949219 15.859375 11.859375 15.871094 C 10.019531 15.808594 8.550781 14.300781 8.550781 12.441406 C 8.5625 10.539062 10.089844 9 12 9 C 13.902344 9 15.441406 10.539062 15.441406 12.441406 C 15.429688 14.300781 13.972656 15.808594 12.121094 15.871094 Z M 12.121094 15.871094 "/>
<path style="fill-rule:nonzero;fill:rgb(16.078432%,17.647059%,19.607843%);fill-opacity:1;stroke-width:1;stroke-linecap:butt;stroke-linejoin:miter;stroke:rgb(100%,40.000001%,0%);stroke-opacity:1;stroke-miterlimit:4;" d="M 8.871094 17.941406 C 7.359375 18.949219 7.359375 20.609375 8.871094 21.609375 C 10.589844 22.761719 13.410156 22.761719 15.128906 21.609375 C 16.640625 20.601562 16.640625 18.941406 15.128906 17.941406 C 13.421875 16.789062 10.601562 16.789062 8.871094 17.941406 Z M 8.871094 17.941406 "/>
</g>
</svg>
